<svg xmlns="http://www.w3.org/2000/svg" width="398" height="512" viewBox="0 0 398 512"><defs><linearGradient id="grad" x1="0" y1="0" x2="1" y2="1"><stop offset="0" stop-color="#74EEFF"/><stop offset="0.55" stop-color="#1ECBF2"/><stop offset="1" stop-color="#07ABDD"/></linearGradient><linearGradient id="gs" x1="0" y1="0" x2="0" y2="1"><stop offset="0" stop-color="#FFFFFF" stop-opacity="0.34"/><stop offset="0.5" stop-color="#fff" stop-opacity="0"/></linearGradient></defs><path d="M312 -14Q238 -14 179.5 18.5Q121 51 86.5 113.5Q52 176 52 267V433Q52 569 128.0 641.5Q204 714 332 714Q460 714 529.0 645.5Q598 577 598 461V457H480V465Q480 505 464.0 537.0Q448 569 415.0 587.5Q382 606 332 606Q258 606 215.5 560.5Q173 515 173 435V265Q173 186 215.5 139.0Q258 92 334 92Q410 92 445.0 133.0Q480 174 480 238V250H303V352H598V0H488V69H471Q463 51 446.0 31.5Q429 12 397.5 -1.0Q366 -14 312 -14Z" fill="url(#grad)" transform="translate(27.43,484.57) scale(0.6279,-0.6279) translate(-52.00,14.00)"/></svg>