<svg xmlns="http://www.w3.org/2000/svg" viewBox="0 0 96 96" width="96" height="96" role="img" aria-label="Plenzich">
  <!-- lancia/torcia diagonale -->
  <rect x="40" y="34" width="86" height="10" rx="5" transform="rotate(36 40 34)" fill="#16243f"/>
  <!-- scintille -->
  <g stroke="#16243f" stroke-width="4.5" stroke-linecap="round">
    <line x1="6" y1="64" x2="26" y2="54"/>
    <line x1="4" y1="52" x2="24" y2="44"/>
    <line x1="12" y1="76" x2="32" y2="66"/>
  </g>
  <!-- fiamma -->
  <path d="M50 8 C 61 25, 65 32, 56 46 C 65 41, 68 33, 68 33 C 78 51, 69 78, 49 78 C 30 78, 23 60, 34 44 C 37 52, 42 52, 42 52 C 34 35, 39 19, 50 8 Z" fill="#E1251B"/>
</svg>
